<?xml version="1.0" standalone="no"?>
<!DOCTYPE svg PUBLIC "-//W3C//DTD SVG 20010904//EN"
 "http://www.w3.org/TR/2001/REC-SVG-20010904/DTD/svg10.dtd">
<svg version="1.0" xmlns="http://www.w3.org/2000/svg"
 width="40.000000pt" height="40.000000pt" viewBox="0 0 40.000000 40.000000"
 preserveAspectRatio="xMidYMid meet"
 style="background-color:yellow">

<g transform="translate(0.000000,40.000000) scale(0.100000,-0.100000)"
fill="#FF0000" stroke="none">
<path d="M30 351 c0 -17 18 -21 24 -6 3 9 0 15 -9 15 -8 0 -15 -4 -15 -9z"/>
<path d="M78 353 c7 -3 16 -2 19 1 4 3 -2 6 -13 5 -11 0 -14 -3 -6 -6z"/>
<path d="M122 346 c7 -8 15 -12 17 -11 5 6 -10 25 -20 25 -5 0 -4 -6 3 -14z"/>
<path d="M30 294 c0 -14 4 -22 10 -19 5 3 10 2 10 -4 0 -5 -5 -13 -11 -16 -5
-4 -9 -14 -7 -22 3 -17 68 -29 68 -13 0 6 -11 10 -25 10 -24 0 -25 2 -19 39 5
30 3 39 -10 44 -12 5 -16 0 -16 -19z"/>
<path d="M152 295 c3 -14 1 -25 -3 -25 -5 0 -8 -12 -7 -26 l2 -26 18 22 c20
25 23 40 7 40 -6 0 -8 9 -4 20 4 12 2 20 -5 20 -8 0 -10 -10 -8 -25z"/>
<path d="M217 286 c-3 -8 -3 -24 0 -35 3 -12 1 -21 -6 -21 -6 0 -11 5 -11 11
0 6 -7 3 -16 -6 -13 -12 -14 -18 -4 -30 10 -12 16 -13 28 -3 13 11 14 7 10
-39 -5 -56 5 -89 20 -65 5 7 7 35 4 63 -3 32 -1 49 7 49 6 0 11 -5 11 -12 0
-8 6 -7 16 4 21 20 9 41 -18 32 -18 -5 -20 -3 -15 16 10 38 -13 70 -26 36z"/>
<path d="M312 224 c-7 -12 -7 -26 -1 -36 10 -19 -5 -35 -16 -18 -5 8 -11 7
-21 -1 -17 -14 0 -41 21 -32 19 6 30 -39 17 -64 -7 -12 -7 -24 -1 -34 15 -24
27 7 21 57 -4 42 -3 44 19 42 18 -2 24 2 24 17 0 15 -6 19 -24 17 -20 -2 -22
1 -18 21 4 12 2 28 -2 36 -7 11 -11 10 -19 -5z"/>
<path d="M51 184 c0 -11 3 -14 6 -6 3 7 2 16 -1 19 -3 4 -6 -2 -5 -13z"/>
<path d="M31 133 c-1 -50 2 -63 14 -63 9 0 15 9 15 25 0 14 -5 25 -11 25 -5 0
-8 4 -5 8 3 5 1 22 -4 38 -7 24 -8 18 -9 -33z"/>
<path d="M165 182 c-13 -9 -18 -33 -6 -29 10 2 11 -2 11 -33 0 -11 -4 -20 -10
-20 -5 0 -7 8 -4 18 3 9 -2 5 -12 -10 -10 -15 -30 -29 -44 -31 -20 -3 -19 -4
8 -6 35 -1 65 20 76 55 8 26 -6 66 -19 56z"/>
</g>
</svg>
